<?xml version="1.0" encoding="UTF-8"?>
<svg width="200" height="120" viewBox="0 0 200 120" xmlns="http://www.w3.org/2000/svg">
  <!-- 背景渐变 -->
  <defs>
    <linearGradient id="backgroundGradient" x1="0%" y1="0%" x2="0%" y2="100%">
      <stop offset="0%" style="stop-color:#0f0f23;stop-opacity:1" />
      <stop offset="100%" style="stop-color:#1a1a2e;stop-opacity:1" />
    </linearGradient>
    
    <!-- 道路渐变 -->
    <linearGradient id="roadGradient" x1="0%" y1="0%" x2="0%" y2="100%">
      <stop offset="0%" style="stop-color:#555;stop-opacity:1" />
      <stop offset="50%" style="stop-color:#333;stop-opacity:1" />
      <stop offset="100%" style="stop-color:#222;stop-opacity:1" />
    </linearGradient>
    
    <!-- 车辆渐变 -->
    <linearGradient id="playerCarGradient" x1="0%" y1="0%" x2="100%" y2="0%">
      <stop offset="0%" style="stop-color:#00ff88;stop-opacity:1" />
      <stop offset="50%" style="stop-color:#88aaff;stop-opacity:1" />
      <stop offset="100%" style="stop-color:#00ff88;stop-opacity:1" />
    </linearGradient>
    
    <!-- 速度线效果 -->
    <linearGradient id="speedLineGradient" x1="0%" y1="0%" x2="0%" y2="100%">
      <stop offset="0%" style="stop-color:rgba(255,255,255,0);stop-opacity:0" />
      <stop offset="50%" style="stop-color:rgba(255,255,255,0.8);stop-opacity:1" />
      <stop offset="100%" style="stop-color:rgba(255,255,255,0);stop-opacity:0" />
    </linearGradient>
    
    <!-- 车灯效果 -->
    <filter id="glowEffect" x="-50%" y="-50%" width="200%" height="200%">
      <feGaussianBlur stdDeviation="2" result="coloredBlur"/>
      <feMerge> 
        <feMergeNode in="coloredBlur"/>
        <feMergeNode in="SourceGraphic"/>
      </feMerge>
    </filter>
    
    <!-- 阴影效果 -->
    <filter id="shadowEffect" x="-20%" y="-20%" width="140%" height="140%">
      <feDropShadow dx="2" dy="4" stdDeviation="2" flood-color="rgba(0,0,0,0.3)"/>
    </filter>
  </defs>
  
  <!-- 背景 -->
  <rect width="200" height="120" fill="url(#backgroundGradient)"/>
  
  <!-- 地平线和天空 -->
  <rect x="0" y="0" width="200" height="30" fill="url(#backgroundGradient)"/>
  
  <!-- 远景建筑物剪影 -->
  <g fill="rgba(255,255,255,0.1)" opacity="0.6">
    <rect x="10" y="15" width="8" height="15"/>
    <rect x="25" y="10" width="12" height="20"/>
    <rect x="45" y="12" width="6" height="18"/>
    <rect x="60" y="8" width="10" height="22"/>
    <rect x="80" y="14" width="7" height="16"/>
    <rect x="100" y="11" width="9" height="19"/>
    <rect x="120" y="13" width="11" height="17"/>
    <rect x="140" y="9" width="8" height="21"/>
    <rect x="160" y="16" width="6" height="14"/>
    <rect x="175" y="12" width="10" height="18"/>
  </g>
  
  <!-- 3D赛道 (梯形透视) -->
  <polygon points="50,30 150,30 170,120 30,120" fill="url(#roadGradient)" filter="url(#shadowEffect)"/>
  
  <!-- 路肩 -->
  <polygon points="30,30 50,30 30,120 10,120" fill="#2d5a27"/>
  <polygon points="150,30 170,30 190,120 170,120" fill="#2d5a27"/>
  
  <!-- 路边护栏 -->
  <g stroke="rgba(255,255,255,0.6)" stroke-width="1" fill="none">
    <line x1="35" y1="35" x2="15" y2="115"/>
    <line x1="165" y1="35" x2="185" y2="115"/>
  </g>
  
  <!-- 车道分隔线 -->
  <g fill="#ffff00">
    <!-- 左车道线 -->
    <rect x="73" y="35" width="2" height="8"/>
    <rect x="76" y="50" width="2" height="10"/>
    <rect x="79" y="68" width="2" height="12"/>
    <rect x="82" y="90" width="2" height="14"/>
    <rect x="85" y="110" width="2" height="10"/>
    
    <!-- 右车道线 -->
    <rect x="125" y="35" width="2" height="8"/>
    <rect x="122" y="50" width="2" height="10"/>
    <rect x="119" y="68" width="2" height="12"/>
    <rect x="116" y="90" width="2" height="14"/>
    <rect x="113" y="110" width="2" height="10"/>
  </g>
  
  <!-- 边界线 -->
  <g fill="#ffffff">
    <rect x="48" y="30" width="2" height="90"/>
    <rect x="150" y="30" width="2" height="90"/>
  </g>
  
  <!-- 玩家车辆 (主角) -->
  <g transform="translate(100, 85)" filter="url(#shadowEffect)">
    <!-- 车身 -->
    <rect x="-12" y="-25" width="24" height="35" fill="url(#playerCarGradient)" rx="3"/>
    
    <!-- 车窗 -->
    <rect x="-8" y="-20" width="16" height="8" fill="rgba(0,255,255,0.8)"/>
    <rect x="-8" y="5" width="16" height="6" fill="rgba(0,255,255,0.8)"/>
    
    <!-- 车轮 -->
    <rect x="-14" y="-15" width="3" height="6" fill="#000"/>
    <rect x="11" y="-15" width="3" height="6" fill="#000"/>
    <rect x="-14" y="5" width="3" height="6" fill="#000"/>
    <rect x="11" y="5" width="3" height="6" fill="#000"/>
    
    <!-- 车灯 -->
    <circle cx="-8" cy="-25" r="2" fill="#ffffff" filter="url(#glowEffect)"/>
    <circle cx="8" cy="-25" r="2" fill="#ffffff" filter="url(#glowEffect)"/>
    
    <!-- 尾气效果 -->
    <rect x="-3" y="10" width="2" height="8" fill="rgba(255,255,255,0.4)"/>
    <rect x="1" y="10" width="2" height="8" fill="rgba(255,255,255,0.4)"/>
  </g>
  
  <!-- 障碍车辆 -->
  <!-- 红色车 -->
  <g transform="translate(70, 55)" filter="url(#shadowEffect)">
    <rect x="-10" y="-20" width="20" height="28" fill="#ff4444" rx="2"/>
    <rect x="-6" y="-15" width="12" height="6" fill="rgba(100,100,255,0.8)"/>
    <rect x="-6" y="2" width="12" height="5" fill="rgba(100,100,255,0.8)"/>
    <rect x="-12" y="-10" width="2" height="5" fill="#333"/>
    <rect x="10" y="-10" width="2" height="5" fill="#333"/>
    <rect x="-12" y="0" width="2" height="5" fill="#333"/>
    <rect x="10" y="0" width="2" height="5" fill="#333"/>
  </g>
  
  <!-- 蓝色车 -->
  <g transform="translate(130, 45)" filter="url(#shadowEffect)">
    <rect x="-9" y="-18" width="18" height="25" fill="#4444ff" rx="2"/>
    <rect x="-6" y="-14" width="12" height="5" fill="rgba(100,100,255,0.8)"/>
    <rect x="-6" y="2" width="12" height="4" fill="rgba(100,100,255,0.8)"/>
    <rect x="-11" y="-8" width="2" height="4" fill="#333"/>
    <rect x="9" y="-8" width="2" height="4" fill="#333"/>
    <rect x="-11" y="0" width="2" height="4" fill="#333"/>
    <rect x="9" y="0" width="2" height="4" fill="#333"/>
  </g>
  
  <!-- 速度线效果 -->
  <g stroke="url(#speedLineGradient)" stroke-width="1" opacity="0.7">
    <line x1="20" y1="40" x2="25" y2="100"/>
    <line x1="25" y1="35" x2="30" y2="105"/>
    <line x1="175" y1="40" x2="170" y2="100"/>
    <line x1="180" y1="35" x2="175" y2="105"/>
    <line x1="40" y1="25" x2="35" y2="95"/>
    <line x1="160" y1="25" x2="165" y2="95"/>
  </g>
  
  <!-- 游戏UI元素 -->
  <!-- 速度表 -->
  <g transform="translate(15, 15)">
    <circle cx="0" cy="0" r="12" fill="rgba(0,0,0,0.8)" stroke="#00ff88" stroke-width="2"/>
    <text x="0" y="-3" font-family="Arial, sans-serif" font-size="6" font-weight="bold" fill="#00ff88" text-anchor="middle">125</text>
    <text x="0" y="4" font-family="Arial, sans-serif" font-size="4" fill="#ffffff" text-anchor="middle">km/h</text>
    <!-- 指针 -->
    <line x1="0" y1="0" x2="0" y2="-8" stroke="#00ff88" stroke-width="2" transform="rotate(45)"/>
  </g>
  
  <!-- 分数显示 -->
  <rect x="150" y="8" width="45" height="16" fill="rgba(0,0,0,0.8)" rx="3" filter="url(#shadowEffect)"/>
  <text x="155" y="18" font-family="Arial, sans-serif" font-size="10" font-weight="bold" fill="#ffaa00">分数: 2450</text>
  
  <!-- 燃料表 -->
  <rect x="150" y="28" width="45" height="16" fill="rgba(0,0,0,0.8)" rx="3" filter="url(#shadowEffect)"/>
  <text x="155" y="35" font-family="Arial, sans-serif" font-size="8" font-weight="bold" fill="#ff6666">燃料</text>
  <rect x="155" y="37" width="30" height="4" fill="rgba(255,255,255,0.3)" rx="2"/>
  <rect x="155" y="37" width="20" height="4" fill="#00ff88" rx="2"/>
  
  <!-- 距离显示 -->
  <rect x="150" y="48" width="45" height="12" fill="rgba(0,0,0,0.8)" rx="3" filter="url(#shadowEffect)"/>
  <text x="155" y="57" font-family="Arial, sans-serif" font-size="8" font-weight="bold" fill="#88aaff">1.8 KM</text>
  
  <!-- 控制提示 -->
  <g transform="translate(15, 100)">
    <circle cx="0" cy="0" r="8" fill="rgba(255,255,255,0.1)" stroke="rgba(255,255,255,0.5)" stroke-width="1"/>
    <text x="0" y="2" font-family="Arial, sans-serif" font-size="8" font-weight="bold" fill="white" text-anchor="middle">←</text>
  </g>
  
  <g transform="translate(35, 100)">
    <circle cx="0" cy="0" r="8" fill="rgba(255,255,255,0.1)" stroke="rgba(255,255,255,0.5)" stroke-width="1"/>
    <text x="0" y="2" font-family="Arial, sans-serif" font-size="8" font-weight="bold" fill="white" text-anchor="middle">→</text>
  </g>
  
  <!-- 游戏标题 -->
  <text x="10" y="12" font-family="Arial, sans-serif" font-size="10" font-weight="bold" fill="white" opacity="0.9">极速赛车</text>
  
  <!-- 道路装饰元素 -->
  <!-- 路边树木 -->
  <g opacity="0.6">
    <circle cx="8" cy="75" r="3" fill="#2d5a27"/>
    <rect x="7" y="75" width="2" height="5" fill="#8b4513"/>
    
    <circle cx="192" cy="65" r="4" fill="#4a7c59"/>
    <rect x="191" y="65" width="2" height="6" fill="#8b4513"/>
  </g>
  
  <!-- 动态效果指示 -->
  <g opacity="0.8">
    <!-- 引擎光效 -->
    <ellipse cx="100" cy="110" rx="8" ry="3" fill="rgba(0,255,136,0.6)">
      <animate attributeName="ry" values="2;4;2" dur="0.5s" repeatCount="indefinite"/>
    </ellipse>
    
    <!-- 速度粒子 -->
    <circle cx="30" cy="50" r="1" fill="rgba(255,255,255,0.8)">
      <animate attributeName="cy" values="40;120" dur="0.3s" repeatCount="indefinite"/>
      <animate attributeName="opacity" values="1;0" dur="0.3s" repeatCount="indefinite"/>
    </circle>
    
    <circle cx="170" cy="60" r="1" fill="rgba(255,255,255,0.6)">
      <animate attributeName="cy" values="50;120" dur="0.4s" repeatCount="indefinite"/>
      <animate attributeName="opacity" values="1;0" dur="0.4s" repeatCount="indefinite"/>
    </circle>
  </g>
  
  <!-- 竞速感装饰 -->
  <g stroke="rgba(255,255,255,0.3)" stroke-width="1" fill="none" opacity="0.5">
    <path d="M 50 120 Q 100 110 150 120" stroke-dasharray="3,2"/>
  </g>
</svg> 