<?xml version="1.0" encoding="UTF-8"?>
<svg width="200" height="120" viewBox="0 0 200 120" xmlns="http://www.w3.org/2000/svg">
  <!-- 背景渐变 -->
  <defs>
    <linearGradient id="backgroundGradient" x1="0%" y1="0%" x2="100%" y2="100%">
      <stop offset="0%" style="stop-color:#2c3e50;stop-opacity:1" />
      <stop offset="100%" style="stop-color:#34495e;stop-opacity:1" />
    </linearGradient>
    
    <!-- 网格阴影 -->
    <filter id="gridShadow" x="-20%" y="-20%" width="140%" height="140%">
      <feDropShadow dx="2" dy="2" stdDeviation="2" flood-color="rgba(0,0,0,0.3)"/>
    </filter>
    
    <!-- 数字阴影 -->
    <filter id="numberShadow" x="-20%" y="-20%" width="140%" height="140%">
      <feDropShadow dx="1" dy="1" stdDeviation="1" flood-color="rgba(0,0,0,0.2)"/>
    </filter>
  </defs>
  
  <!-- 背景 -->
  <rect width="200" height="120" fill="url(#backgroundGradient)"/>
  
  <!-- 数独网格背景 -->
  <rect x="25" y="15" width="90" height="90" fill="white" stroke="#2c3e50" stroke-width="3" rx="5" filter="url(#gridShadow)"/>
  
  <!-- 数独网格线 -->
  <g stroke="#dee2e6" stroke-width="1" fill="none">
    <!-- 细网格线 -->
    <!-- 垂直线 -->
    <line x1="35" y1="15" x2="35" y2="105"/>
    <line x1="45" y1="15" x2="45" y2="105"/>
    <line x1="55" y1="15" x2="55" y2="105"/>
    <line x1="65" y1="15" x2="65" y2="105"/>
    <line x1="75" y1="15" x2="75" y2="105"/>
    <line x1="85" y1="15" x2="85" y2="105"/>
    <line x1="95" y1="15" x2="95" y2="105"/>
    <line x1="105" y1="15" x2="105" y2="105"/>
    
    <!-- 水平线 -->
    <line x1="25" y1="25" x2="115" y2="25"/>
    <line x1="25" y1="35" x2="115" y2="35"/>
    <line x1="25" y1="45" x2="115" y2="45"/>
    <line x1="25" y1="55" x2="115" y2="55"/>
    <line x1="25" y1="65" x2="115" y2="65"/>
    <line x1="25" y1="75" x2="115" y2="75"/>
    <line x1="25" y1="85" x2="115" y2="85"/>
    <line x1="25" y1="95" x2="115" y2="95"/>
  </g>
  
  <!-- 粗网格线 (3x3宫格分隔) -->
  <g stroke="#2c3e50" stroke-width="2" fill="none">
    <!-- 垂直粗线 -->
    <line x1="55" y1="15" x2="55" y2="105"/>
    <line x1="85" y1="15" x2="85" y2="105"/>
    
    <!-- 水平粗线 -->
    <line x1="25" y1="45" x2="115" y2="45"/>
    <line x1="25" y1="75" x2="115" y2="75"/>
  </g>
  
  <!-- 数独数字 (预填数字 - 深色) -->
  <g font-family="Arial, sans-serif" font-size="8" font-weight="bold" fill="#2c3e50" text-anchor="middle">
    <!-- 第一行 -->
    <text x="30" y="23">5</text>
    <text x="40" y="23">3</text>
    <text x="60" y="23">7</text>
    <text x="80" y="23">1</text>
    <text x="100" y="23">9</text>
    <text x="110" y="23">2</text>
    
    <!-- 第二行 -->
    <text x="30" y="33">6</text>
    <text x="70" y="33">1</text>
    <text x="80" y="33">9</text>
    <text x="90" y="33">5</text>
    
    <!-- 第三行 -->
    <text x="50" y="43">9</text>
    <text x="60" y="43">8</text>
    <text x="110" y="43">3</text>
    
    <!-- 第四行 -->
    <text x="30" y="53">8</text>
    <text x="60" y="53">6</text>
    <text x="80" y="53">3</text>
    <text x="110" y="53">1</text>
    
    <!-- 第五行 -->
    <text x="40" y="63">3</text>
    <text x="70" y="63">7</text>
    <text x="100" y="63">6</text>
    
    <!-- 第六行 -->
    <text x="30" y="73">7</text>
    <text x="60" y="73">4</text>
    <text x="80" y="73">2</text>
    <text x="110" y="73">8</text>
    
    <!-- 第七行 -->
    <text x="30" y="83">1</text>
    <text x="50" y="83">6</text>
    <text x="60" y="83">8</text>
    
    <!-- 第八行 -->
    <text x="50" y="93">2</text>
    <text x="60" y="93">4</text>
    <text x="70" y="93">1</text>
    <text x="110" y="93">5</text>
    
    <!-- 第九行 -->
    <text x="30" y="103">4</text>
    <text x="50" y="103">8</text>
    <text x="80" y="103">5</text>
    <text x="90" y="103">3</text>
    <text x="110" y="103">7</text>
  </g>
  
  <!-- 用户输入的数字 (蓝色) -->
  <g font-family="Arial, sans-serif" font-size="8" font-weight="bold" fill="#3498db" text-anchor="middle" filter="url(#numberShadow)">
    <text x="50" y="23">4</text>
    <text x="70" y="23">6</text>
    <text x="90" y="23">8</text>
    
    <text x="40" y="33">7</text>
    <text x="50" y="33">2</text>
    <text x="60" y="33">4</text>
    <text x="100" y="33">8</text>
    <text x="110" y="33">3</text>
    
    <text x="30" y="43">1</text>
    <text x="40" y="43">7</text>
    <text x="70" y="43">2</text>
    <text x="80" y="43">4</text>
    <text x="90" y="43">6</text>
    <text x="100" y="43">5</text>
  </g>
  
  <!-- 选中的单元格高亮 -->
  <rect x="65" y="25" width="10" height="10" fill="none" stroke="#3498db" stroke-width="2" rx="1"/>
  
  <!-- 相关单元格高亮 (同行、同列、同宫格) -->
  <g fill="rgba(52, 152, 219, 0.1)">
    <!-- 同行高亮 -->
    <rect x="25" y="25" width="90" height="10" rx="1"/>
    <!-- 同列高亮 -->
    <rect x="65" y="15" width="10" height="90" rx="1"/>
    <!-- 同宫格高亮 -->
    <rect x="55" y="15" width="30" height="30" rx="1"/>
  </g>
  
  <!-- 游戏UI元素 -->
  <!-- 计时器 -->
  <rect x="130" y="20" width="50" height="18" fill="rgba(255,255,255,0.9)" rx="4" filter="url(#gridShadow)"/>
  <text x="135" y="31" font-family="Arial, sans-serif" font-size="10" font-weight="bold" fill="#e74c3c">时间: 08:24</text>
  
  <!-- 难度显示 -->
  <rect x="130" y="45" width="50" height="18" fill="rgba(255,255,255,0.9)" rx="4" filter="url(#gridShadow)"/>
  <text x="135" y="56" font-family="Arial, sans-serif" font-size="10" font-weight="bold" fill="#3498db">难度: 中等</text>
  
  <!-- 控制按钮 -->
  <rect x="130" y="70" width="22" height="15" fill="#f39c12" rx="3" filter="url(#gridShadow)"/>
  <text x="141" y="80" font-family="Arial, sans-serif" font-size="7" font-weight="bold" fill="white" text-anchor="middle">提示</text>
  
  <rect x="158" y="70" width="22" height="15" fill="#27ae60" rx="3" filter="url(#gridShadow)"/>
  <text x="169" y="80" font-family="Arial, sans-serif" font-size="7" font-weight="bold" fill="white" text-anchor="middle">检查</text>
  
  <rect x="130" y="90" width="22" height="15" fill="#e74c3c" rx="3" filter="url(#gridShadow)"/>
  <text x="141" y="100" font-family="Arial, sans-serif" font-size="7" font-weight="bold" fill="white" text-anchor="middle">清空</text>
  
  <rect x="158" y="90" width="22" height="15" fill="#9b59b6" rx="3" filter="url(#gridShadow)"/>
  <text x="169" y="100" font-family="Arial, sans-serif" font-size="7" font-weight="bold" fill="white" text-anchor="middle">暂停</text>
  
  <!-- 数字输入提示 -->
  <g opacity="0.8">
    <rect x="8" y="50" width="16" height="40" fill="rgba(255,255,255,0.95)" rx="3" filter="url(#gridShadow)"/>
    <text x="16" y="58" font-family="Arial, sans-serif" font-size="6" font-weight="bold" fill="#2c3e50" text-anchor="middle">数字</text>
    
    <!-- 小数字网格 -->
    <g font-family="Arial, sans-serif" font-size="6" fill="#3498db" text-anchor="middle">
      <text x="12" y="67">1</text>
      <text x="16" y="67">2</text>
      <text x="20" y="67">3</text>
      <text x="12" y="74">4</text>
      <text x="16" y="74">5</text>
      <text x="20" y="74">6</text>
      <text x="12" y="81">7</text>
      <text x="16" y="81">8</text>
      <text x="20" y="81">9</text>
    </g>
  </g>
  
  <!-- 逻辑指示箭头 -->
  <g stroke="#27ae60" stroke-width="2" fill="none" opacity="0.7">
    <path d="M 115 30 Q 125 30 125 40" marker-end="url(#arrowhead)"/>
  </g>
  
  <!-- 箭头标记定义 -->
  <defs>
    <marker id="arrowhead" markerWidth="10" markerHeight="7" refX="9" refY="3.5" orient="auto">
      <polygon points="0 0, 10 3.5, 0 7" fill="#27ae60"/>
    </marker>
  </defs>
  
  <!-- 游戏标题 -->
  <text x="10" y="12" font-family="Arial, sans-serif" font-size="12" font-weight="bold" fill="white" opacity="0.9">数独挑战</text>
  
  <!-- 完成度指示 -->
  <g opacity="0.7">
    <text x="185" y="112" font-family="Arial, sans-serif" font-size="8" font-weight="bold" fill="white" text-anchor="end">65%完成</text>
    <rect x="155" y="105" width="30" height="4" fill="rgba(255,255,255,0.3)" rx="2"/>
    <rect x="155" y="105" width="19.5" height="4" fill="#27ae60" rx="2"/>
  </g>
  
  <!-- 数独规则提示点 -->
  <g fill="#f1c40f" opacity="0.6">
    <circle cx="120" cy="25" r="1">
      <animate attributeName="opacity" values="0.3;1;0.3" dur="2s" repeatCount="indefinite"/>
    </circle>
    <circle cx="35" cy="55" r="1">
      <animate attributeName="opacity" values="0.3;1;0.3" dur="2.5s" repeatCount="indefinite"/>
    </circle>
    <circle cx="95" cy="85" r="1">
      <animate attributeName="opacity" values="0.3;1;0.3" dur="3s" repeatCount="indefinite"/>
    </circle>
  </g>
</svg> 