<?xml version="1.0" encoding="UTF-8"?>
<svg width="400" height="300" viewBox="0 0 400 300" xmlns="http://www.w3.org/2000/svg">
  <defs>
    <!-- 渐变定义 -->
    <linearGradient id="skyGradient" x1="0%" y1="0%" x2="0%" y2="100%">
      <stop offset="0%" style="stop-color:#87CEEB;stop-opacity:1" />
      <stop offset="100%" style="stop-color:#4682B4;stop-opacity:1" />
    </linearGradient>
    
    <linearGradient id="playerGradient" x1="0%" y1="0%" x2="100%" y2="100%">
      <stop offset="0%" style="stop-color:#FF6B6B;stop-opacity:1" />
      <stop offset="100%" style="stop-color:#FF4757;stop-opacity:1" />
    </linearGradient>
    
    <linearGradient id="platformGradient" x1="0%" y1="0%" x2="0%" y2="100%">
      <stop offset="0%" style="stop-color:#2ECC71;stop-opacity:1" />
      <stop offset="100%" style="stop-color:#27AE60;stop-opacity:1" />
    </linearGradient>
    
    <linearGradient id="bouncePlatformGradient" x1="0%" y1="0%" x2="0%" y2="100%">
      <stop offset="0%" style="stop-color:#E74C3C;stop-opacity:1" />
      <stop offset="100%" style="stop-color:#C0392B;stop-opacity:1" />
    </linearGradient>
    
    <!-- 云朵滤镜 -->
    <filter id="cloudShadow" x="-20%" y="-20%" width="140%" height="140%">
      <feDropShadow dx="2" dy="2" stdDeviation="2" flood-color="#ffffff" flood-opacity="0.3"/>
    </filter>
    
    <!-- 跳跃动效线条 -->
    <filter id="glow" x="-50%" y="-50%" width="200%" height="200%">
      <feGaussianBlur stdDeviation="3" result="coloredBlur"/>
      <feMerge> 
        <feMergeNode in="coloredBlur"/>
        <feMergeNode in="SourceGraphic"/>
      </feMerge>
    </filter>
  </defs>
  
  <!-- 天空背景 -->
  <rect width="400" height="300" fill="url(#skyGradient)"/>
  
  <!-- 云朵装饰 -->
  <g opacity="0.7">
    <ellipse cx="80" cy="60" rx="25" ry="15" fill="#ffffff" filter="url(#cloudShadow)"/>
    <ellipse cx="95" cy="65" rx="30" ry="18" fill="#ffffff" filter="url(#cloudShadow)"/>
    <ellipse cx="75" cy="70" rx="20" ry="12" fill="#ffffff" filter="url(#cloudShadow)"/>
    
    <ellipse cx="320" cy="45" rx="20" ry="12" fill="#ffffff" filter="url(#cloudShadow)"/>
    <ellipse cx="335" cy="50" rx="25" ry="15" fill="#ffffff" filter="url(#cloudShadow)"/>
  </g>
  
  <!-- 平台系列 -->
  <!-- 普通绿色平台 -->
  <rect x="50" y="250" width="80" height="15" rx="7" fill="url(#platformGradient)"/>
  <rect x="180" y="200" width="70" height="15" rx="7" fill="url(#platformGradient)"/>
  <rect x="300" y="160" width="85" height="15" rx="7" fill="url(#platformGradient)"/>
  
  <!-- 弹跳红色平台 -->
  <rect x="120" y="180" width="60" height="20" rx="10" fill="url(#bouncePlatformGradient)"/>
  <!-- 弹跳平台的弹簧效果 -->
  <rect x="140" y="175" width="4" height="10" fill="#FFD700"/>
  <rect x="146" y="175" width="4" height="10" fill="#FFD700"/>
  <rect x="152" y="175" width="4" height="10" fill="#FFD700"/>
  
  <!-- 移动平台 -->
  <rect x="260" y="120" width="75" height="15" rx="7" fill="#3498DB">
    <animateTransform attributeName="transform" type="translate" 
                      values="0 0; 20 0; 0 0" dur="3s" repeatCount="indefinite"/>
  </rect>
  
  <!-- 主角小人 - 跳跃姿态 -->
  <g transform="translate(200, 140)">
    <!-- 跳跃轨迹线 -->
    <path d="M -30 40 Q 0 -10 30 40" stroke="#FFD700" stroke-width="3" 
          fill="none" opacity="0.6" filter="url(#glow)" stroke-dasharray="5,5">
      <animate attributeName="stroke-dashoffset" values="0;10" dur="1s" repeatCount="indefinite"/>
    </path>
    
    <!-- 身体 -->
    <ellipse cx="0" cy="0" rx="18" ry="25" fill="url(#playerGradient)"/>
    
    <!-- 头部 -->
    <circle cx="0" cy="-20" r="12" fill="#FFE4B5"/>
    
    <!-- 眼睛 -->
    <circle cx="-4" cy="-22" r="2" fill="#000"/>
    <circle cx="4" cy="-22" r="2" fill="#000"/>
    <circle cx="-3" cy="-23" r="1" fill="#fff"/>
    <circle cx="5" cy="-23" r="1" fill="#fff"/>
    
    <!-- 嘴巴 - 兴奋表情 -->
    <path d="M -4 -16 Q 0 -12 4 -16" stroke="#000" stroke-width="1.5" fill="none"/>
    
    <!-- 手臂 - 跳跃动作 -->
    <ellipse cx="-15" cy="-5" rx="6" ry="15" fill="#FFE4B5" transform="rotate(-30)"/>
    <ellipse cx="15" cy="-5" rx="6" ry="15" fill="#FFE4B5" transform="rotate(30)"/>
    
    <!-- 腿部 - 收起的跳跃姿势 -->
    <ellipse cx="-8" cy="20" rx="5" ry="12" fill="#4169E1" transform="rotate(-20)"/>
    <ellipse cx="8" cy="20" rx="5" ry="12" fill="#4169E1" transform="rotate(20)"/>
    
    <!-- 鞋子 -->
    <ellipse cx="-12" cy="28" rx="8" ry="4" fill="#000" transform="rotate(-20)"/>
    <ellipse cx="12" cy="28" rx="8" ry="4" fill="#000" transform="rotate(20)"/>
    
    <!-- 跳跃特效 - 能量光环 -->
    <circle cx="0" cy="0" r="35" fill="none" stroke="#FFD700" stroke-width="2" opacity="0.3">
      <animate attributeName="r" values="35;45;35" dur="1.5s" repeatCount="indefinite"/>
      <animate attributeName="opacity" values="0.3;0.1;0.3" dur="1.5s" repeatCount="indefinite"/>
    </circle>
  </g>
  
  <!-- 收集品/奖励星星 -->
  <g transform="translate(320, 80)">
    <polygon points="0,-8 2.4,-2.4 8,0 2.4,2.4 0,8 -2.4,2.4 -8,0 -2.4,-2.4" 
             fill="#FFD700" stroke="#FFA500" stroke-width="1">
      <animateTransform attributeName="transform" type="rotate" 
                        values="0;360" dur="3s" repeatCount="indefinite"/>
    </polygon>
    <circle cx="0" cy="0" r="12" fill="none" stroke="#FFD700" stroke-width="1" opacity="0.5">
      <animate attributeName="r" values="12;18;12" dur="2s" repeatCount="indefinite"/>
      <animate attributeName="opacity" values="0.5;0.2;0.5" dur="2s" repeatCount="indefinite"/>
    </circle>
  </g>
  
  <!-- 另一个星星 -->
  <g transform="translate(80, 130)">
    <polygon points="0,-6 1.8,-1.8 6,0 1.8,1.8 0,6 -1.8,1.8 -6,0 -1.8,-1.8" 
             fill="#FFD700" stroke="#FFA500" stroke-width="1">
      <animateTransform attributeName="transform" type="rotate" 
                        values="360;0" dur="4s" repeatCount="indefinite"/>
    </polygon>
  </g>
  
  <!-- 标题文字 -->
  <text x="200" y="40" text-anchor="middle" font-family="Arial, sans-serif" 
        font-size="24" font-weight="bold" fill="#2C3E50">
    无尽跳跃
  </text>
  
  <!-- 副标题 -->
  <text x="200" y="60" text-anchor="middle" font-family="Arial, sans-serif" 
        font-size="12" fill="#34495E" opacity="0.8">
    挑战重力极限
  </text>
  
  <!-- 速度线条效果 -->
  <g opacity="0.4">
    <line x1="0" y1="100" x2="30" y2="100" stroke="#ffffff" stroke-width="2"/>
    <line x1="0" y1="110" x2="25" y2="110" stroke="#ffffff" stroke-width="2"/>
    <line x1="0" y1="120" x2="35" y2="120" stroke="#ffffff" stroke-width="2"/>
    <line x1="0" y1="130" x2="20" y2="130" stroke="#ffffff" stroke-width="2"/>
    
    <line x1="370" y1="140" x2="400" y2="140" stroke="#ffffff" stroke-width="2"/>
    <line x1="375" y1="150" x2="400" y2="150" stroke="#ffffff" stroke-width="2"/>
    <line x1="365" y1="160" x2="400" y2="160" stroke="#ffffff" stroke-width="2"/>
    <line x1="380" y1="170" x2="400" y2="170" stroke="#ffffff" stroke-width="2"/>
  </g>
</svg> 