<?xml version="1.0" encoding="UTF-8"?>
<svg width="400" height="300" viewBox="0 0 400 300" xmlns="http://www.w3.org/2000/svg">
  <defs>
    <!-- 背景渐变 -->
    <linearGradient id="backgroundGradient" x1="0%" y1="0%" x2="100%" y2="100%">
      <stop offset="0%" style="stop-color:#667eea;stop-opacity:1" />
      <stop offset="100%" style="stop-color:#764ba2;stop-opacity:1" />
    </linearGradient>
    
    <!-- 游戏板背景 -->
    <linearGradient id="boardGradient" x1="0%" y1="0%" x2="0%" y2="100%">
      <stop offset="0%" style="stop-color:#ffffff;stop-opacity:0.95" />
      <stop offset="100%" style="stop-color:#f8f9fa;stop-opacity:0.95" />
    </linearGradient>
    
    <!-- 连线发光效果 -->
    <filter id="lineGlow" x="-50%" y="-50%" width="200%" height="200%">
      <feGaussianBlur stdDeviation="3" result="coloredBlur"/>
      <feMerge> 
        <feMergeNode in="coloredBlur"/>
        <feMergeNode in="SourceGraphic"/>
      </feMerge>
    </filter>
    
    <!-- 方块阴影 -->
    <filter id="blockShadow" x="-20%" y="-20%" width="140%" height="140%">
      <feDropShadow dx="2" dy="2" stdDeviation="2" flood-color="#000000" flood-opacity="0.2"/>
    </filter>
    
    <!-- 消除特效 -->
    <filter id="sparkle" x="-50%" y="-50%" width="200%" height="200%">
      <feGaussianBlur stdDeviation="2" result="coloredBlur"/>
      <feMerge> 
        <feMergeNode in="coloredBlur"/>
        <feMergeNode in="SourceGraphic"/>
      </feMerge>
    </filter>
  </defs>
  
  <!-- 背景 -->
  <rect width="400" height="300" fill="url(#backgroundGradient)"/>
  
  <!-- 装饰性星星背景 -->
  <g opacity="0.3">
    <polygon points="50,30 52,36 58,36 53,40 55,46 50,42 45,46 47,40 42,36 48,36" fill="#ffffff"/>
    <polygon points="350,40 351,44 355,44 352,47 353,51 350,48 347,51 348,47 345,44 349,44" fill="#ffffff"/>
    <polygon points="80,280 81.5,284 85.5,284 82.5,287 84,291 80,288 76,291 77.5,287 74.5,284 78.5,284" fill="#ffffff"/>
    <polygon points="320,270 321.5,274 325.5,274 322.5,277 324,281 320,278 316,281 317.5,277 314.5,274 318.5,274" fill="#ffffff"/>
  </g>
  
  <!-- 游戏主板区域 -->
  <rect x="50" y="80" width="300" height="160" rx="10" fill="url(#boardGradient)" 
        stroke="#e9ecef" stroke-width="2" filter="url(#blockShadow)"/>
  
  <!-- 网格线 -->
  <g stroke="#dee2e6" stroke-width="1" opacity="0.5">
    <!-- 垂直线 -->
    <line x1="100" y1="90" x2="100" y2="230"/>
    <line x1="150" y1="90" x2="150" y2="230"/>
    <line x1="200" y1="90" x2="200" y2="230"/>
    <line x1="250" y1="90" x2="250" y2="230"/>
    <line x1="300" y1="90" x2="300" y2="230"/>
    <!-- 水平线 -->
    <line x1="60" y1="120" x2="340" y2="120"/>
    <line x1="60" y1="160" x2="340" y2="160"/>
    <line x1="60" y1="200" x2="340" y2="200"/>
  </g>
  
  <!-- 游戏方块 - 各种可爱图案 -->
  
  <!-- 苹果方块 -->
  <g transform="translate(75, 105)">
    <rect x="-15" y="-15" width="30" height="30" rx="5" fill="#fff8e1" stroke="#ffcc02" stroke-width="2" filter="url(#blockShadow)"/>
    <!-- 苹果图案 -->
    <circle cx="0" cy="2" r="8" fill="#e53e3e"/>
    <ellipse cx="0" cy="-2" rx="7" ry="5" fill="#e53e3e"/>
    <rect x="-1" y="-10" width="2" height="4" fill="#38a169"/>
    <ellipse cx="3" cy="-8" rx="3" ry="1.5" fill="#38a169" transform="rotate(30)"/>
  </g>
  
  <!-- 香蕉方块 -->
  <g transform="translate(125, 105)">
    <rect x="-15" y="-15" width="30" height="30" rx="5" fill="#fff8e1" stroke="#ffcc02" stroke-width="2" filter="url(#blockShadow)"/>
    <!-- 香蕉图案 -->
    <path d="M -6 -6 Q 0 -8 6 -4 Q 8 0 4 6 Q 0 8 -4 4 Q -8 0 -6 -6" fill="#ecc94b"/>
    <path d="M -4 -4 Q 0 -6 4 -2 Q 6 2 2 4 Q -2 6 -2 2 Q -6 -2 -4 -4" fill="#f6e05e"/>
  </g>
  
  <!-- 樱桃方块 -->
  <g transform="translate(175, 105)">
    <rect x="-15" y="-15" width="30" height="30" rx="5" fill="#fff8e1" stroke="#ffcc02" stroke-width="2" filter="url(#blockShadow)"/>
    <!-- 樱桃图案 -->
    <circle cx="-3" cy="2" r="5" fill="#e53e3e"/>
    <circle cx="4" cy="4" r="5" fill="#e53e3e"/>
    <path d="M -3 -3 Q 0 -8 3 -6 Q 6 -4 4 -1" stroke="#38a169" stroke-width="2" fill="none"/>
  </g>
  
  <!-- 草莓方块 -->
  <g transform="translate(275, 105)">
    <rect x="-15" y="-15" width="30" height="30" rx="5" fill="#fff8e1" stroke="#ffcc02" stroke-width="2" filter="url(#blockShadow)"/>
    <!-- 草莓图案 -->
    <path d="M 0 -6 Q -6 -2 -4 4 Q 0 8 4 4 Q 6 -2 0 -6" fill="#e53e3e"/>
    <polygon points="0,-8 -2,-6 2,-6" fill="#38a169"/>
    <circle cx="-2" cy="0" r="1" fill="#38a169"/>
    <circle cx="2" cy="2" r="1" fill="#38a169"/>
    <circle cx="0" cy="4" r="1" fill="#38a169"/>
  </g>
  
  <!-- 第二行方块 -->
  
  <!-- 橙子方块 -->
  <g transform="translate(75, 145)">
    <rect x="-15" y="-15" width="30" height="30" rx="5" fill="#fff8e1" stroke="#ffcc02" stroke-width="2" filter="url(#blockShadow)"/>
    <!-- 橙子图案 -->
    <circle cx="0" cy="0" r="8" fill="#fd9200"/>
    <rect x="-1" y="-10" width="2" height="4" fill="#38a169"/>
    <circle cx="-2" cy="-2" r="1" fill="#fed7d7"/>
    <circle cx="3" cy="1" r="1" fill="#fed7d7"/>
    <circle cx="0" cy="3" r="1" fill="#fed7d7"/>
  </g>
  
  <!-- 西瓜方块 -->
  <g transform="translate(225, 145)">
    <rect x="-15" y="-15" width="30" height="30" rx="5" fill="#fff8e1" stroke="#ffcc02" stroke-width="2" filter="url(#blockShadow)"/>
    <!-- 西瓜图案 -->
    <path d="M -6 2 Q 0 -6 6 2 Q 0 8 -6 2" fill="#38a169"/>
    <path d="M -4 2 Q 0 -4 4 2 Q 0 6 -4 2" fill="#e53e3e"/>
    <circle cx="-2" cy="2" r="1" fill="#000"/>
    <circle cx="2" cy="1" r="1" fill="#000"/>
    <circle cx="0" cy="4" r="1" fill="#000"/>
  </g>
  
  <!-- 葡萄方块 -->
  <g transform="translate(325, 145)">
    <rect x="-15" y="-15" width="30" height="30" rx="5" fill="#fff8e1" stroke="#ffcc02" stroke-width="2" filter="url(#blockShadow)"/>
    <!-- 葡萄图案 -->
    <circle cx="0" cy="-4" r="3" fill="#805ad5"/>
    <circle cx="-3" cy="-1" r="3" fill="#805ad5"/>
    <circle cx="3" cy="-1" r="3" fill="#805ad5"/>
    <circle cx="-2" cy="3" r="3" fill="#805ad5"/>
    <circle cx="2" cy="3" r="3" fill="#805ad5"/>
    <ellipse cx="0" cy="-8" rx="2" ry="1" fill="#38a169"/>
  </g>
  
  <!-- 第三行方块 -->
  
  <!-- 柠檬方块 -->
  <g transform="translate(125, 185)">
    <rect x="-15" y="-15" width="30" height="30" rx="5" fill="#fff8e1" stroke="#ffcc02" stroke-width="2" filter="url(#blockShadow)"/>
    <!-- 柠檬图案 -->
    <ellipse cx="0" cy="0" rx="7" ry="9" fill="#ecc94b"/>
    <path d="M 0 -6 Q -2 -8 0 -9 Q 2 -8 0 -6" fill="#38a169"/>
    <circle cx="-2" cy="-1" r="1" fill="#fed7d7"/>
    <circle cx="2" cy="2" r="1" fill="#fed7d7"/>
  </g>
  
  <!-- 桃子方块 -->
  <g transform="translate(275, 185)">
    <rect x="-15" y="-15" width="30" height="30" rx="5" fill="#fff8e1" stroke="#ffcc02" stroke-width="2" filter="url(#blockShadow)"/>
    <!-- 桃子图案 -->
    <path d="M -3 -4 Q -6 0 -3 5 Q 0 8 3 5 Q 6 0 3 -4 Q 0 -7 -3 -4" fill="#fd9200"/>
    <path d="M -1 -6 Q 0 -8 1 -6" stroke="#38a169" stroke-width="2" fill="none"/>
    <ellipse cx="1" cy="-5" rx="2" ry="1" fill="#38a169" transform="rotate(30)"/>
  </g>
  
  <!-- 连接线动画 - 展示连连看的核心玩法 -->
  <g filter="url(#lineGlow)">
    <!-- 第一条连线：连接两个苹果 -->
    <path d="M 75 105 L 95 105 L 95 125 L 115 125 L 115 185 L 125 185" 
          stroke="#ff6b6b" stroke-width="4" fill="none" opacity="0.8">
      <animate attributeName="stroke-dasharray" values="0,200;200,0" dur="2s" repeatCount="indefinite"/>
      <animate attributeName="opacity" values="0.8;1;0.8" dur="2s" repeatCount="indefinite"/>
    </path>
    
    <!-- 第二条连线：连接两个香蕉 -->
    <path d="M 125 105 L 145 105 L 145 85 L 255 85 L 255 185 L 275 185" 
          stroke="#48bb78" stroke-width="4" fill="none" opacity="0.6">
      <animate attributeName="stroke-dasharray" values="0,300;300,0" dur="3s" repeatCount="indefinite"/>
      <animate attributeName="opacity" values="0.6;1;0.6" dur="3s" repeatCount="indefinite"/>
    </path>
  </g>
  
  <!-- 消除特效 - 星星爆炸效果 -->
  <g transform="translate(200, 160)" filter="url(#sparkle)">
    <polygon points="0,-6 1.8,-1.8 6,0 1.8,1.8 0,6 -1.8,1.8 -6,0 -1.8,-1.8" 
             fill="#ffd700" opacity="0.8">
      <animateTransform attributeName="transform" type="rotate" 
                        values="0;360" dur="2s" repeatCount="indefinite"/>
      <animate attributeName="opacity" values="0.8;0.3;0.8" dur="1s" repeatCount="indefinite"/>
    </polygon>
    
    <!-- 小星星围绕 -->
    <g>
      <polygon points="0,-3 1,-1 3,0 1,1 0,3 -1,1 -3,0 -1,-1" 
               fill="#ff6b6b" transform="translate(12, 0)">
        <animateTransform attributeName="transform" type="rotate" 
                          values="0 0 0;360 0 0" dur="1.5s" repeatCount="indefinite"/>
      </polygon>
      <polygon points="0,-3 1,-1 3,0 1,1 0,3 -1,1 -3,0 -1,-1" 
               fill="#48bb78" transform="translate(-12, 0)">
        <animateTransform attributeName="transform" type="rotate" 
                          values="360 0 0;0 0 0" dur="1.5s" repeatCount="indefinite"/>
      </polygon>
      <polygon points="0,-3 1,-1 3,0 1,1 0,3 -1,1 -3,0 -1,-1" 
               fill="#4299e1" transform="translate(0, 12)">
        <animateTransform attributeName="transform" type="rotate" 
                          values="180 0 0;540 0 0" dur="1.5s" repeatCount="indefinite"/>
      </polygon>
    </g>
  </g>
  
  <!-- 标题文字 -->
  <text x="200" y="35" text-anchor="middle" font-family="Arial, sans-serif" 
        font-size="28" font-weight="bold" fill="#ffffff">
    连连看
  </text>
  
  <!-- 副标题 -->
  <text x="200" y="55" text-anchor="middle" font-family="Arial, sans-serif" 
        font-size="14" fill="#ffffff" opacity="0.9">
    连接相同图案，考验眼力与策略
  </text>
  
  <!-- 装饰性元素 -->
  <g opacity="0.6">
    <!-- 左侧装饰 -->
    <circle cx="25" cy="150" r="3" fill="#ffffff">
      <animate attributeName="r" values="3;5;3" dur="2s" repeatCount="indefinite"/>
    </circle>
    <circle cx="30" cy="130" r="2" fill="#ffffff">
      <animate attributeName="r" values="2;4;2" dur="1.5s" repeatCount="indefinite"/>
    </circle>
    
    <!-- 右侧装饰 -->
    <circle cx="375" cy="150" r="3" fill="#ffffff">
      <animate attributeName="r" values="3;5;3" dur="2.5s" repeatCount="indefinite"/>
    </circle>
    <circle cx="370" cy="170" r="2" fill="#ffffff">
      <animate attributeName="r" values="2;4;2" dur="1.8s" repeatCount="indefinite"/>
    </circle>
  </g>
  
  <!-- 时间指示器 -->
  <g transform="translate(50, 260)">
    <rect x="0" y="0" width="300" height="8" rx="4" fill="#ffffff" opacity="0.3"/>
    <rect x="0" y="0" width="200" height="8" rx="4" fill="#48bb78">
      <animate attributeName="width" values="300;50;300" dur="8s" repeatCount="indefinite"/>
    </rect>
    <text x="150" y="20" text-anchor="middle" font-family="Arial, sans-serif" 
          font-size="12" fill="#ffffff" opacity="0.8">
      时间剩余
    </text>
  </g>
</svg> 